<svg width="239" height="134" viewBox="0 0 239 134" fill="none" xmlns="http://www.w3.org/2000/svg">
<path d="M166.444 51.6938H171.624V65.5694H183.604V51.6938H188.784V85.6891H183.604V69.9171H171.624V85.6891H166.444V51.6938ZM195.894 51.6938H210.787V56.2265H201.028V65.6157H208.89V70.2409H201.028V81.1102H212.313V85.6891H195.894V51.6938ZM225.347 86.1516C223.497 86.1516 221.662 85.8279 219.843 85.1803C218.024 84.5328 216.713 83.8082 215.911 83.0065L218.363 78.6125C219.01 79.1984 220.012 79.8151 221.369 80.4626C222.757 81.0793 224.083 81.3877 225.347 81.3877C226.981 81.3877 228.307 81.0022 229.324 80.2314C230.373 79.4605 230.897 78.3967 230.897 77.04C230.897 75.9916 230.62 75.082 230.065 74.3111C229.509 73.5402 228.831 72.9081 228.029 72.4147C227.228 71.8906 226.087 71.2584 224.607 70.5184C222.849 69.655 221.647 69.0075 220.999 68.5758C218.008 66.5716 216.513 63.7964 216.513 60.2504C216.513 57.3211 217.484 55.0856 219.427 53.5439C221.369 51.9713 223.82 51.185 226.781 51.185C229.957 51.185 232.655 52.0946 234.875 53.9139L232.423 58.1228C231.838 57.5061 231.005 56.9819 229.926 56.5503C228.877 56.0877 227.752 55.8565 226.549 55.8565C225.008 55.8565 223.79 56.2111 222.895 56.9203C222.032 57.5986 221.6 58.6162 221.6 59.9729C221.6 60.9288 221.878 61.7922 222.433 62.563C222.988 63.3031 223.682 63.9506 224.514 64.5056C225.378 65.0607 226.534 65.739 227.983 66.5407C229.371 67.3116 230.435 67.9283 231.175 68.3908C231.915 68.8225 232.608 69.3467 233.256 69.9634C234.15 70.7651 234.875 71.721 235.43 72.831C235.985 73.9411 236.262 75.159 236.262 76.4849C236.262 78.5509 235.784 80.3085 234.828 81.7577C233.903 83.2069 232.608 84.3016 230.943 85.0416C229.309 85.7816 227.444 86.1516 225.347 86.1516Z" fill="black"/>
<path d="M33.1915 73.5711L41.3319 51.6938H46.8359L33.6078 85.6891H32.9602L23.7098 63.6731L14.5056 85.6429H13.8581L0.629983 51.6938H6.13399L14.2744 73.5711L23.6173 51.5088H23.8948L33.1915 73.5711ZM60.2302 51.6475L76.6035 85.6891H70.637L67.7231 79.0288H52.1361L49.2222 85.6891H43.4407L59.7214 51.6475H60.2302ZM57.9176 66.1245L54.2174 74.3573H65.688L62.0341 66.1707L60.0452 61.4992H59.9527L57.9176 66.1245ZM83.1713 56.2265H74.4759V51.6938H97.0932V56.2265H88.3053V85.6891H83.1713V56.2265Z" fill="black"/>
<path d="M108.814 66.6235C108.814 72.1121 109.985 76.9531 112.329 81.1467C114.672 85.3402 117.818 88.6395 121.764 91.0446C125.711 93.4497 130.121 94.6523 134.992 94.6523C138.076 94.6523 140.882 94.3131 143.41 93.6347C145.939 92.9564 148.221 91.9388 150.256 90.5821C152.352 89.2254 154.203 87.622 155.806 85.7719V92.6172C153.093 95.0223 150.132 96.8416 146.926 98.075C143.719 99.2467 139.741 99.8325 134.992 99.8325C130.491 99.8325 126.297 99.0308 122.412 97.4274C118.588 95.7623 115.258 93.4497 112.421 90.4896C109.585 87.5295 107.365 84.0143 105.761 79.9441C104.158 75.8739 103.356 71.4337 103.356 66.6235C103.356 61.8133 104.158 57.3731 105.761 53.3029C107.365 49.2327 109.585 45.7175 112.421 42.7574C115.258 39.7972 118.588 37.5155 122.412 35.9121C126.297 34.247 130.491 33.4144 134.992 33.4144C139.741 33.4144 143.719 34.0311 146.926 35.2645C150.132 36.4362 153.093 38.2247 155.806 40.6298V47.3826C154.203 45.5325 152.352 43.9599 150.256 42.6649C148.159 41.3081 145.846 40.2906 143.318 39.6122C140.789 38.9339 138.014 38.5947 134.992 38.5947C130.121 38.5947 125.711 39.7972 121.764 42.2024C117.818 44.5458 114.672 47.8143 112.329 52.0078C109.985 56.2013 108.814 61.0732 108.814 66.6235Z" fill="black"/>
<path d="M130.244 69.571L137.884 67.3856L132.171 72.9089L124.532 75.0943L130.244 69.571Z" fill="black"/>
<path d="M135.902 55.888L137.829 44.325L139.756 55.888L137.829 67.4511L135.902 55.888Z" fill="black"/>
</svg>
