<svg width="289" height="134" viewBox="0 0 289 134" fill="none" xmlns="http://www.w3.org/2000/svg">
<path d="M216.444 51.6938H221.624V65.5694H233.604V51.6938H238.784V85.6891H233.604V69.9171H221.624V85.6891H216.444V51.6938ZM245.894 51.6938H260.787V56.2265H251.028V65.6157H258.89V70.2409H251.028V81.1102H262.313V85.6891H245.894V51.6938ZM275.347 86.1516C273.497 86.1516 271.662 85.8279 269.843 85.1803C268.024 84.5328 266.713 83.8082 265.911 83.0065L268.363 78.6125C269.01 79.1984 270.012 79.8151 271.369 80.4626C272.757 81.0793 274.083 81.3877 275.347 81.3877C276.981 81.3877 278.307 81.0022 279.324 80.2314C280.373 79.4605 280.897 78.3967 280.897 77.04C280.897 75.9916 280.62 75.082 280.065 74.3111C279.509 73.5402 278.831 72.9081 278.029 72.4147C277.228 71.8906 276.087 71.2584 274.607 70.5184C272.849 69.655 271.647 69.0075 270.999 68.5758C268.008 66.5716 266.513 63.7964 266.513 60.2504C266.513 57.3211 267.484 55.0856 269.427 53.5439C271.369 51.9713 273.82 51.185 276.781 51.185C279.957 51.185 282.655 52.0946 284.875 53.9139L282.423 58.1228C281.838 57.5061 281.005 56.9819 279.926 56.5503C278.877 56.0877 277.752 55.8565 276.549 55.8565C275.008 55.8565 273.79 56.2111 272.895 56.9203C272.032 57.5986 271.6 58.6162 271.6 59.9729C271.6 60.9288 271.878 61.7922 272.433 62.563C272.988 63.3031 273.682 63.9506 274.514 64.5056C275.378 65.0607 276.534 65.739 277.983 66.5407C279.371 67.3116 280.435 67.9283 281.175 68.3908C281.915 68.8225 282.608 69.3467 283.256 69.9634C284.15 70.7651 284.875 71.721 285.43 72.831C285.985 73.9411 286.262 75.159 286.262 76.4849C286.262 78.5509 285.784 80.3085 284.828 81.7577C283.903 83.2069 282.608 84.3016 280.943 85.0416C279.309 85.7816 277.444 86.1516 275.347 86.1516Z" fill="black"/>
<path d="M83.1915 73.5711L91.3319 51.6938H96.8359L83.6078 85.6891H82.9602L73.7098 63.6731L64.5056 85.6429H63.8581L50.63 51.6938H56.134L64.2744 73.5711L73.6173 51.5088H73.8948L83.1915 73.5711ZM110.23 51.6475L126.603 85.6891H120.637L117.723 79.0288H102.136L99.2222 85.6891H93.4407L109.721 51.6475H110.23ZM107.918 66.1245L104.217 74.3573H115.688L112.034 66.1707L110.045 61.4992H109.953L107.918 66.1245ZM133.171 56.2265H124.476V51.6938H147.093V56.2265H138.305V85.6891H133.171V56.2265Z" fill="black"/>
<path d="M158.814 66.6235C158.814 72.1121 159.985 76.9531 162.329 81.1467C164.672 85.3402 167.818 88.6395 171.764 91.0446C175.711 93.4497 180.121 94.6523 184.992 94.6523C188.076 94.6523 190.882 94.3131 193.41 93.6347C195.939 92.9564 198.221 91.9388 200.256 90.5821C202.352 89.2254 204.203 87.622 205.806 85.7719V92.6172C203.093 95.0223 200.132 96.8416 196.926 98.075C193.719 99.2467 189.741 99.8325 184.992 99.8325C180.491 99.8325 176.297 99.0308 172.412 97.4274C168.588 95.7623 165.258 93.4497 162.421 90.4896C159.585 87.5295 157.365 84.0143 155.761 79.9441C154.158 75.8739 153.356 71.4337 153.356 66.6235C153.356 61.8133 154.158 57.3731 155.761 53.3029C157.365 49.2327 159.585 45.7175 162.421 42.7574C165.258 39.7972 168.588 37.5155 172.412 35.9121C176.297 34.247 180.491 33.4144 184.992 33.4144C189.741 33.4144 193.719 34.0311 196.926 35.2645C200.132 36.4362 203.093 38.2247 205.806 40.6298V47.3826C204.203 45.5325 202.352 43.9599 200.256 42.6649C198.159 41.3081 195.846 40.2906 193.318 39.6122C190.789 38.9339 188.014 38.5947 184.992 38.5947C180.121 38.5947 175.711 39.7972 171.764 42.2024C167.818 44.5458 164.672 47.8143 162.329 52.0078C159.985 56.2013 158.814 61.0732 158.814 66.6235Z" fill="black"/>
<path d="M180.244 69.571L187.884 67.3856L182.171 72.9089L174.532 75.0943L180.244 69.571Z" fill="black"/>
<path d="M185.902 55.888L187.829 44.325L189.756 55.888L187.829 67.4511L185.902 55.888Z" fill="black"/>
<path d="M0.68 51.3H3.22L7.62 61.4L12.04 51.3H14.56L7.78 66H7.48L0.68 51.3ZM23.0884 51.28L30.1684 66H27.5884L26.3284 63.12H19.5884L18.3284 66H15.8284L22.8684 51.28H23.0884ZM22.0884 57.54L20.4884 61.1H25.4484L23.8684 57.56L23.0084 55.54H22.9684L22.0884 57.54ZM41.7398 66L38.7798 60.44C38.1665 60.4667 37.6198 60.48 37.1398 60.48H36.5798V66H34.3998V51.3H37.7398C39.4332 51.3 40.8265 51.6533 41.9198 52.36C43.0132 53.0533 43.5598 54.1867 43.5598 55.76C43.5598 56.7467 43.3265 57.6 42.8598 58.32C42.4065 59.0267 41.7265 59.5733 40.8198 59.96L44.3198 66H41.7398ZM37.9998 58.66C39.3065 58.66 40.1998 58.38 40.6798 57.82C41.1732 57.2467 41.4198 56.5667 41.4198 55.78C41.4198 54.0333 40.2532 53.16 37.9198 53.16H36.5798V58.66H37.9998ZM5.94 86.2C5.14 86.2 4.34667 86.06 3.56 85.78C2.77333 85.5 2.20667 85.1867 1.86 84.84L2.92 82.94C3.2 83.1933 3.63333 83.46 4.22 83.74C4.82 84.0067 5.39333 84.14 5.94 84.14C6.64667 84.14 7.22 83.9733 7.66 83.64C8.11333 83.3067 8.34 82.8467 8.34 82.26C8.34 81.8067 8.22 81.4133 7.98 81.08C7.74 80.7467 7.44667 80.4733 7.1 80.26C6.75333 80.0333 6.26 79.76 5.62 79.44C4.86 79.0667 4.34 78.7867 4.06 78.6C2.76667 77.7333 2.12 76.5333 2.12 75C2.12 73.7333 2.54 72.7667 3.38 72.1C4.22 71.42 5.28 71.08 6.56 71.08C7.93333 71.08 9.1 71.4733 10.06 72.26L9 74.08C8.74667 73.8133 8.38667 73.5867 7.92 73.4C7.46667 73.2 6.98 73.1 6.46 73.1C5.79333 73.1 5.26667 73.2533 4.88 73.56C4.50667 73.8533 4.32 74.2933 4.32 74.88C4.32 75.2933 4.44 75.6667 4.68 76C4.92 76.32 5.22 76.6 5.58 76.84C5.95333 77.08 6.45333 77.3733 7.08 77.72C7.68 78.0533 8.14 78.32 8.46 78.52C8.78 78.7067 9.08 78.9333 9.36 79.2C9.74667 79.5467 10.06 79.96 10.3 80.44C10.54 80.92 10.66 81.4467 10.66 82.02C10.66 82.9133 10.4533 83.6733 10.04 84.3C9.64 84.9267 9.08 85.4 8.36 85.72C7.65333 86.04 6.84667 86.2 5.94 86.2ZM21.0478 71.3H23.2878V77.3H28.4678V71.3H30.7078V86H28.4678V79.18H23.2878V86H21.0478V71.3ZM47.1822 71.28L54.2622 86H51.6822L50.4222 83.12H43.6822L42.4222 86H39.9222L46.9622 71.28H47.1822ZM46.1822 77.54L44.5822 81.1H49.5422L47.9622 77.56L47.1022 75.54H47.0622L46.1822 77.54Z" fill="black"/>
</svg>
